<?xml version="1.0" encoding="UTF-8"?>
<svg id="Capa_3" data-name="Capa 3" xmlns="http://www.w3.org/2000/svg" viewBox="0 0 648.33 545.43">
  <defs>
    <style>
      .cls-1 {
        font-family: TwCenMT-CondensedBold, 'Tw Cen MT Condensed';
        font-size: 88.6px;
        font-weight: 700;
      }

      .cls-1, .cls-2 {
        fill: #be1622;
      }
    </style>
  </defs>
  <rect class="cls-2" x="64.71" y="410" width="583.62" height="25.89"/>
  <polygon id="s_oficial" data-name="s oficial" class="cls-2" points="423.51 365.28 423.51 306.61 350.28 253.4 350.32 253.35 347.94 251.65 341.38 246.89 341.38 202.61 398.16 243.86 398.16 212.55 315.98 152.85 315.98 184.15 315.98 245.75 315.98 259.76 316.04 259.8 316.04 259.99 333.13 272.22 398.16 319.47 398.16 344.07 316.04 344.07 316.04 344.07 316.04 369.42 316.04 369.42 398.16 369.42 398.22 369.42 423.51 369.42 423.56 369.42 423.57 369.42 423.57 365.28 423.51 365.28"/>
  <path id="o_oficial" data-name="o oficial" class="cls-2" d="M273.09,212.57v.04l-56.84-41.3v-.04l-25.35-18.41v191.1h-.02v25.35h.02v.02h25.35v-.02h56.84v.05h25.35v-138.37l-25.35-18.41ZM273.09,343.96h-56.84v-141.32l56.84,41.3v100.02Z"/>
  <polygon id="c_oficial" data-name="c oficial" class="cls-2" points="116.1 343.96 90.08 343.96 90.08 202.64 146.92 243.94 146.92 212.61 90.08 171.31 90.08 171.27 64.73 152.86 64.73 343.96 64.71 343.96 64.71 369.31 64.73 369.31 64.73 369.33 90.08 369.33 90.08 369.31 146.92 369.31 146.92 369.35 172.26 369.35 172.26 343.96 146.92 343.96 116.1 343.96"/>
  <polygon id="t_oficial" data-name="t oficial" class="cls-2" points="415.7 152.85 415.7 184.18 456.77 214.02 456.77 369.41 482.11 369.41 482.11 232.43 523.23 262.3 523.23 230.97 415.7 152.85"/>
  <polygon class="cls-2" points="622.98 243.9 622.98 243.94 622.98 301.37 622.98 343.96 566.14 343.96 566.14 301.37 565.87 301.37 565.87 202.4 540.8 184.18 540.8 343.96 540.77 343.96 540.77 369.31 540.8 369.31 540.8 369.33 566.14 369.33 566.14 369.31 622.98 369.31 622.98 369.35 648.33 369.35 648.33 262.31 622.98 243.9"/>
  <text class="cls-1" transform="translate(213.27 518.01)"><tspan x="0" y="0">Ediciones</tspan></text>
</svg>