<?xml version="1.0" encoding="UTF-8"?>
<svg id="Capa_1" data-name="Capa 1" xmlns="http://www.w3.org/2000/svg" viewBox="0 0 527 527">
  <defs>
    <style>
      .cls-1 {
        fill: #7a0014;
      }
    </style>
  </defs>
  <path class="cls-1" d="M263.5,184.45c43.64,0,79.05,35.41,79.05,79.05s-35.41,79.05-79.05,79.05-79.05-35.41-79.05-79.05,35.41-79.05,79.05-79.05ZM434.78,125.14c0-18.23-14.69-32.92-32.92-32.92s-32.96,14.69-32.96,32.92,14.69,32.96,32.96,32.96,32.92-14.69,32.92-32.96ZM263.5,131.75c-72.73,0-131.75,59.02-131.75,131.75s59.02,131.75,131.75,131.75,131.75-59.02,131.75-131.75-59.02-131.75-131.75-131.75ZM263.5,0c71.64,0,80.56.28,108.56,1.65,28,1.37,47.22,5.76,63.94,12.23,17.43,6.71,31.97,15.77,46.66,30.32h.14c13.32,13.18,23.75,29.09,30.32,46.66,6.46,16.72,11,35.94,12.23,63.94,1.23,28.14,1.65,37.07,1.65,108.56s-.28,80.56-1.65,108.56c-1.37,28-5.76,47.22-12.23,63.94v.28c-6.57,17.57-16.86,33.48-30.32,46.66-13.18,13.32-29.09,23.75-46.66,30.32-16.72,6.46-35.94,11-63.94,12.23-28.14,1.23-37.07,1.65-108.56,1.65s-80.56-.28-108.56-1.65c-28-1.37-47.22-5.76-63.94-12.23h-.28c-17.57-6.57-33.48-16.86-46.66-30.32-13.32-13.17-23.75-29.09-30.32-46.66-6.61-16.72-11-35.94-12.23-63.94-1.37-28.14-1.65-37.07-1.65-108.7s.28-80.56,1.65-108.56c1.37-28.14,5.76-47.22,12.23-63.94v-.14c6.57-17.57,16.86-33.48,30.32-46.66,13.17-13.46,29.09-23.75,46.66-30.32,16.72-6.61,35.94-11,63.94-12.23,28.14-1.37,37.07-1.65,108.7-1.65Z"/>
</svg>